<svg version="1.2" xmlns="http://www.w3.org/2000/svg" viewBox="0 0 945 945" width="945" height="945">
	<title>Beckhoff_Logo-svg</title>
	<style>
		.s0 { fill: #000000 } 
	</style>
	<path id="Layer" fill-rule="evenodd" class="s0" d="m0 557.6v-170.5h52c30.3 0 54 9.8 54 44.1 0 15-5.5 28.4-19.4 35.9v0.5c18.3 10.4 22.1 19.5 22.1 40.7 0 34.5-19.6 49.3-52.2 49.3zm40.1-103.4c17.6-1.2 25.8 0 25.8-20.3 0-16.8-11.6-16.1-25.8-16.1zm0 72.7c20.1-0.4 28.5 0.9 28.5-22 0-19.8-11.4-19.3-28.5-20zm179.8 30.7h-94.6v-170.5h91.9v34.1h-51.8v31.3h50.2v34.1h-50.2v36.9h54.5zm124.5-111h-40.1v-10.9c0-14.5-5.2-22.1-12.8-22.1-12.5-0.2-15.4 6.6-15.4 17.8l-0.3 84.3c0 9.6 3.9 15.3 14.4 15.3 13.7 0 14.8-14.1 14.8-24.6v-15.4h40.1v20.9c0 29.3-16.8 49.8-57.9 49.8-36.9 0-51.3-19.6-51.3-54.4v-70c0-37.1 17.1-54.3 53.8-54.3 34.2 0 54.7 14.5 54.7 49.3zm57.6 110.9h-40.1v-170.5h40.1v68.2h0.5l29.6-68.2h41l-36.4 75.3 38.7 95.2h-42.4l-22.1-59.3-8.9 17.3zm124.1 0h-40.1v-170.5h40.1v65.4h27.9v-65.4h40.1v170.5h-40.1v-70.9h-27.9zm193.2-123.7v69.3c0 38.4-13.4 58.4-54 58.4-40.6 0-54.7-20-54.7-58.4v-69.3c0-32.8 19.6-51 54.7-51 35.1 0 54 18.2 54 51zm-40.1 2.7c0-10.5-0.9-23-14.1-23-12.8 0-14.4 12.5-14.4 23v70c0 9.8 1.6 24.4 14.6 24.4 13 0 13.9-14.6 13.9-24.4zm98.4 121h-40.1v-170.6h94.4v34.2h-54.3v30.2h49.9v34.1h-49.9zm112.2 0h-40.1v-170.5h94.4v34.1h-54.3v30.2h49.9v34.1h-49.9z"/>
</svg>