<svg version="1.2" xmlns="http://www.w3.org/2000/svg" viewBox="0 0 709 709" width="709" height="709">
	<title>KUKA-logo-svg</title>
	<style>
		.s0 { fill: #000000 } 
	</style>
	<path id="path5375" fill="#000" fill-rule="evenodd" class="s0" d="m0 293h38v43.8h17.8l51.6-43.8h53.8l-72.8 58.3 72.8 60.9h-53.8l-52.6-45.8h-16.8v45.8h-38zm363.9 0h38v43.8h17.9l51.5-43.8h53.8l-72.8 58.2 72.8 60.9h-53.8l-52.6-45.7h-16.8v45.7h-38zm-189.4 0h38v69.8c0 15.1 5.7 21 21.2 21h37.7c15.6 0 21.3-5.9 21.3-21v-69.8h38v77.7c0 29.6-15.9 43.7-50.9 43.7h-54.4c-35 0-50.9-14.1-50.9-43.7zm482.8 98.1h-75.2l-8.9 21.1h-42.5l50.4-119.2h77.2l50.4 119.2h-42.5zm-10.8-25.7l-18.2-42.8h-17.2l-18.2 42.8z"/>
</svg>