<?xml version="1.0" encoding="utf-8"?>
<!-- Uploaded to: SVG Repo, www.svgrepo.com, Generator: SVG Repo Mixer Tools -->
<svg fill="#000000" width="800px" height="800px" viewBox="0 0 32 32" version="1.1" xmlns="http://www.w3.org/2000/svg">
<title>wordpress</title>
<path d="M16 1.004c0 0 0 0-0 0-8.282 0-14.996 6.714-14.996 14.996s6.714 14.996 14.996 14.996c8.282 0 14.996-6.714 14.996-14.996v0c-0.011-8.277-6.718-14.984-14.995-14.996h-0.001zM2.518 16c0-0.003 0-0.007 0-0.011 0-1.983 0.43-3.865 1.203-5.559l-0.034 0.084 6.428 17.619c-4.533-2.238-7.596-6.827-7.597-12.133v-0zM16 29.476c-0.003 0-0.006 0-0.009 0-1.354 0-2.662-0.2-3.895-0.571l0.096 0.025 4.045-11.754 4.143 11.355c0.035 0.075 0.067 0.136 0.103 0.195l-0.005-0.009c-1.331 0.482-2.866 0.761-4.467 0.761-0.003 0-0.006 0-0.010 0h0zM17.859 9.663c0.809-0.037 1.54-0.131 1.54-0.131 0.285-0.030 0.506-0.27 0.506-0.56 0-0.311-0.252-0.563-0.564-0.563-0.009 0-0.018 0-0.027 0.001l0.001-0s-2.193 0.169-3.599 0.169c-1.33 0-3.561-0.187-3.561-0.187-0.014-0.001-0.030-0.002-0.047-0.002-0.306 0-0.555 0.248-0.555 0.555 0 0.29 0.222 0.528 0.506 0.553l0.002 0s0.675 0.076 1.406 0.112l2.099 5.755-2.962 8.847-4.91-14.583c0.811-0.037 1.542-0.125 1.542-0.125 0.286-0.028 0.508-0.268 0.508-0.559 0-0.31-0.251-0.561-0.561-0.561-0.010 0-0.019 0-0.029 0.001l0.001-0s-2.182 0.172-3.591 0.172c-0.25 0-0.547-0.010-0.862-0.019 2.488-3.641 6.616-6.003 11.296-6.013h0.002c0.006 0 0.014-0 0.021-0 3.508 0 6.701 1.346 9.093 3.549l-0.009-0.009c-0.057-0.004-0.114-0.011-0.176-0.011-1.259 0.038-2.265 1.068-2.265 2.333 0 0.021 0 0.041 0.001 0.062l-0-0.003c0.151 1.212 0.626 2.291 1.334 3.175l-0.010-0.012c0.681 1.054 1.093 2.337 1.112 3.715l0 0.005c-0.154 1.603-0.517 3.076-1.064 4.457l0.038-0.11-1.343 4.48-4.874-14.508zM27.833 9.533c1.037 1.866 1.647 4.092 1.647 6.46 0 4.95-2.665 9.277-6.639 11.625l-0.063 0.034 4.118-11.905c0.625-1.423 0.999-3.079 1.025-4.819l0-0.010c0-0.009 0-0.019 0-0.029 0-0.479-0.032-0.95-0.093-1.412l0.006 0.054z"></path>
</svg>